<svg xmlns="http://www.w3.org/2000/svg" width="1380" height="760" viewBox="0 0 1380 760">
<defs>
  <style>
    .title { font: 700 18px 'Times New Roman', serif; fill: #1f1f1f; }
    .label { font: 13px 'Times New Roman', serif; fill: #1f1f1f; }
    .small { font: 11px 'Times New Roman', serif; fill: #1f1f1f; }
    .tiny { font: 10px 'Times New Roman', serif; fill: #4a4a4a; }
    .box { stroke: #4c4c4c; stroke-width: 1.2; rx: 10; ry: 10; }
    .soft { fill: #f4efe3; }
    .cool { fill: #e8f2fb; }
    .mint { fill: #e8f4ee; }
    .rose { fill: #f8e7e7; }
    .sand { fill: #f6ecd2; }
    .gray { fill: #ececec; }
    .tokStroke { stroke: #4c4c4c; stroke-width: 1.0; }
    .arrow { stroke: #333333; stroke-width: 1.35; fill: none; marker-end: url(#arrow); }
    .dash { stroke-dasharray: 4 3; }
  </style>
  <marker id="arrow" markerWidth="10" markerHeight="10" refX="8" refY="3" orient="auto" markerUnits="strokeWidth">
    <path d="M0,0 L8,3 L0,6 z" fill="#333333"/>
  </marker>
</defs>
<rect x="0" y="0" width="1380" height="760" fill="white"/>
<text x="690" y="36" class="title" text-anchor="middle">Fig. 3  Overall architecture of G-OEP-BiT</text>
<rect x="105" y="595" width="150" height="82" rx="6" ry="6" fill="#d7e9f8" class="tokStroke"/>
<rect x="115" y="605" width="130" height="62" rx="4" ry="4" fill="white" fill-opacity="0.28" stroke="#555" stroke-width="0.8"/>
<rect x="129" y="613" width="102" height="46" rx="4" ry="4" fill="none" stroke="#666" stroke-width="0.8" stroke-dasharray="3 2"/>
<text x="180.0" y="693" class="small" text-anchor="middle">T1 image (2020)</text>

<rect x="330" y="595" width="150" height="82" rx="6" ry="6" fill="#d7e9f8" class="tokStroke"/>
<rect x="340" y="605" width="130" height="62" rx="4" ry="4" fill="white" fill-opacity="0.28" stroke="#555" stroke-width="0.8"/>
<rect x="354" y="613" width="102" height="46" rx="4" ry="4" fill="none" stroke="#666" stroke-width="0.8" stroke-dasharray="3 2"/>
<text x="405.0" y="693" class="small" text-anchor="middle">T2 image</text>

<rect x="90" y="450" width="175" height="78" rx="10" ry="10" class="box soft" />
<text x="177.5" y="486" class="label" text-anchor="middle">Shared BiT encoder</text>
<text x="177.5" y="506" class="small" text-anchor="middle">backbone + transformer</text>
<rect x="315" y="450" width="175" height="78" rx="10" ry="10" class="box soft" />
<text x="402.5" y="486" class="label" text-anchor="middle">Shared BiT encoder</text>
<text x="402.5" y="506" class="small" text-anchor="middle">backbone + transformer</text>
<line x1="180" y1="595" x2="177.5" y2="528" class="arrow"/>
<line x1="405" y1="595" x2="402.5" y2="528" class="arrow"/>
<rect x="620" y="568" width="170" height="78" rx="10" ry="10" class="box rose" />
<text x="705" y="602" class="label" text-anchor="middle">Ecological prior</text>
<text x="705" y="621" class="label" text-anchor="middle">encoder</text>
<text x="705" y="640" class="small" text-anchor="middle">from T1</text>
<line x1="255" y1="636" x2="620" y2="606" class="arrow"/>
<rect x="615" y="430" width="180" height="78" rx="10" ry="10" class="box mint" />
<text x="705" y="463" class="label" text-anchor="middle">Online prior map</text>
<text x="705" y="483" class="small" text-anchor="middle">P ∈ R^{1×H×W}</text>
<line x1="705" y1="568" x2="705" y2="508" class="arrow"/>
<rect x="910" y="430" width="145" height="78" rx="10" ry="10" class="box cool" />
<text x="982.5" y="463" class="label" text-anchor="middle">SPG on T1</text>
<text x="982.5" y="483" class="small" text-anchor="middle">F₁' = SPG(F₁, P)</text>
<rect x="1120" y="430" width="145" height="78" rx="10" ry="10" class="box cool" />
<text x="1192.5" y="463" class="label" text-anchor="middle">SPG on T2</text>
<text x="1192.5" y="483" class="small" text-anchor="middle">F₂' = SPG(F₂, P)</text>
<line x1="265" y1="489" x2="910" y2="466" class="arrow"/>
<line x1="490" y1="489" x2="1120" y2="466" class="arrow"/>
<line x1="795" y1="469" x2="910" y2="469" class="arrow"/>
<line x1="795" y1="469" x2="1120" y2="469" class="arrow"/>
<rect x="945" y="285" width="290" height="74" rx="10" ry="10" class="box gray" />
<text x="1090" y="318" class="label" text-anchor="middle">Feature fusion</text>
<text x="1090" y="337" class="small" text-anchor="middle">[F₁' ; F₂']</text>
<line x1="982.5" y1="430" x2="1018" y2="359" class="arrow"/>
<line x1="1192.5" y1="430" x2="1162" y2="359" class="arrow"/>
<rect x="960" y="162" width="260" height="74" rx="10" ry="10" class="box sand" />
<text x="1090" y="194" class="label" text-anchor="middle">Change decoder</text>
<text x="1090" y="214" class="small" text-anchor="middle">Upsample + Conv layers</text>
<line x1="1090" y1="285" x2="1090" y2="236" class="arrow"/>
<rect x="988" y="60" width="205" height="62" rx="10" ry="10" class="box mint" />
<text x="1090" y="88" class="label" text-anchor="middle">Eradication probability map</text>
<text x="1090" y="108" class="small" text-anchor="middle">G-OEP-BiT output</text>
<line x1="1090" y1="162" x2="1090" y2="122" class="arrow"/>
<rect x="65" y="112" width="245" height="92" rx="10" ry="10" class="box gray" />
<text x="187.5" y="142" class="label" text-anchor="middle">Image-driven branch</text>
<text x="187.5" y="164" class="small" text-anchor="middle">captures bitemporal change</text>
<text x="187.5" y="184" class="small" text-anchor="middle">features with shared BiT encoder</text>
<line x1="310" y1="158" x2="390" y2="450" class="arrow dash"/>
<rect x="420" y="112" width="270" height="92" rx="10" ry="10" class="box gray" />
<text x="555" y="142" class="label" text-anchor="middle">Ecological prior branch</text>
<text x="555" y="164" class="small" text-anchor="middle">learns former Spartina tendency</text>
<text x="555" y="184" class="small" text-anchor="middle">from the pre-eradication image</text>
<line x1="690" y1="158" x2="705" y2="430" class="arrow dash"/>
<rect x="1090" y="560" width="220" height="88" rx="10" ry="10" class="box gray" />
<text x="1200" y="590" class="label" text-anchor="middle">Key idea</text>
<text x="1200" y="612" class="small" text-anchor="middle">ecological context is injected</text>
<text x="1200" y="632" class="small" text-anchor="middle">at the feature level rather than</text>
<text x="1200" y="652" class="small" text-anchor="middle">used as post-processing</text>
<line x1="1120" y1="560" x2="1035" y2="508" class="arrow dash"/>
</svg>
